<?xml version="1.0" encoding="UTF-8" standalone="no"?>
<svg
   xmlns:dc="http://purl.org/dc/elements/1.1/"
   xmlns:cc="http://creativecommons.org/ns#"
   xmlns:rdf="http://www.w3.org/1999/02/22-rdf-syntax-ns#"
   xmlns:svg="http://www.w3.org/2000/svg"
   xmlns="http://www.w3.org/2000/svg"
   xmlns:sodipodi="http://sodipodi.sourceforge.net/DTD/sodipodi-0.dtd"
   xmlns:inkscape="http://www.inkscape.org/namespaces/inkscape"
   inkscape:export-ydpi="576"
   inkscape:export-xdpi="576"
   inkscape:export-filename="D:\Projeck juni #2\export\line\png\25 - Cabriolet.png"
   width="64pt"
   height="64pt"
   viewBox="0 0 22.577778 22.577778"
   version="1.1"
   id="svg831"
   inkscape:version="1.0 (4035a4fb49, 2020-05-01)"
   sodipodi:docname="26 - Zeppelin.svg">
  <defs
     id="defs825">
    <pattern
       id="EMFhbasepattern"
       patternUnits="userSpaceOnUse"
       width="6"
       height="6"
       x="0"
       y="0" />
    <pattern
       id="EMFhbasepattern-9"
       patternUnits="userSpaceOnUse"
       width="6"
       height="6"
       x="0"
       y="0" />
    <pattern
       id="EMFhbasepattern-0"
       patternUnits="userSpaceOnUse"
       width="6"
       height="6"
       x="0"
       y="0" />
    <pattern
       id="EMFhbasepattern-7"
       patternUnits="userSpaceOnUse"
       width="6"
       height="6"
       x="0"
       y="0" />
    <pattern
       id="EMFhbasepattern-2"
       patternUnits="userSpaceOnUse"
       width="6"
       height="6"
       x="0"
       y="0" />
    <pattern
       id="EMFhbasepattern-98"
       patternUnits="userSpaceOnUse"
       width="6"
       height="6"
       x="0"
       y="0" />
    <pattern
       id="EMFhbasepattern-6"
       patternUnits="userSpaceOnUse"
       width="6"
       height="6"
       x="0"
       y="0" />
    <pattern
       id="EMFhbasepattern-01"
       patternUnits="userSpaceOnUse"
       width="6"
       height="6"
       x="0"
       y="0" />
    <pattern
       id="EMFhbasepattern-07"
       patternUnits="userSpaceOnUse"
       width="6"
       height="6"
       x="0"
       y="0" />
    <pattern
       id="EMFhbasepattern-8"
       patternUnits="userSpaceOnUse"
       width="6"
       height="6"
       x="0"
       y="0" />
    <pattern
       id="EMFhbasepattern-4"
       patternUnits="userSpaceOnUse"
       width="6"
       height="6"
       x="0"
       y="0" />
    <pattern
       id="EMFhbasepattern-40"
       patternUnits="userSpaceOnUse"
       width="6"
       height="6"
       x="0"
       y="0" />
    <pattern
       id="EMFhbasepattern-08"
       patternUnits="userSpaceOnUse"
       width="6"
       height="6"
       x="0"
       y="0" />
    <pattern
       id="EMFhbasepattern-04"
       patternUnits="userSpaceOnUse"
       width="6"
       height="6"
       x="0"
       y="0" />
    <pattern
       id="EMFhbasepattern-014"
       patternUnits="userSpaceOnUse"
       width="6"
       height="6"
       x="0"
       y="0" />
    <pattern
       id="EMFhbasepattern-27"
       patternUnits="userSpaceOnUse"
       width="6"
       height="6"
       x="0"
       y="0" />
    <pattern
       id="EMFhbasepattern-09"
       patternUnits="userSpaceOnUse"
       width="6"
       height="6"
       x="0"
       y="0" />
    <pattern
       id="EMFhbasepattern-5"
       patternUnits="userSpaceOnUse"
       width="6"
       height="6"
       x="0"
       y="0" />
    <pattern
       id="EMFhbasepattern-018"
       patternUnits="userSpaceOnUse"
       width="6"
       height="6"
       x="0"
       y="0" />
  </defs>
  <sodipodi:namedview
     id="base"
     pagecolor="#ffffff"
     bordercolor="#666666"
     borderopacity="1.0"
     inkscape:pageopacity="0.0"
     inkscape:pageshadow="2"
     inkscape:zoom="6.2578125"
     inkscape:cx="42.666667"
     inkscape:cy="42.666667"
     inkscape:document-units="pt"
     inkscape:current-layer="layer1"
     showgrid="false"
     units="pt"
     inkscape:window-width="1366"
     inkscape:window-height="705"
     inkscape:window-x="-8"
     inkscape:window-y="-8"
     inkscape:window-maximized="1"
     inkscape:pagecheckerboard="true"
     inkscape:showpageshadow="false"
     inkscape:object-paths="true"
     inkscape:snap-intersection-paths="true"
     inkscape:snap-smooth-nodes="true"
     inkscape:snap-midpoints="true"
     showguides="true"
     inkscape:snap-bbox="true"
     inkscape:bbox-nodes="true"
     inkscape:snap-nodes="false"
     inkscape:snap-global="true"
     inkscape:document-rotation="0">
    <inkscape:grid
       type="xygrid"
       id="grid1378" />
    <sodipodi:guide
       position="0.97013831,21.607643"
       orientation="78.000048,0"
       id="guide1380"
       inkscape:locked="false" />
    <sodipodi:guide
       position="0.97013831,0.97013129"
       orientation="0,78.000005"
       id="guide1382"
       inkscape:locked="false" />
    <sodipodi:guide
       position="21.607639,0.97013129"
       orientation="-78.000048,0"
       id="guide1384"
       inkscape:locked="false" />
    <sodipodi:guide
       position="21.607639,21.607643"
       orientation="0,-78.000005"
       id="guide1386"
       inkscape:locked="false" />
  </sodipodi:namedview>
  <metadata
     id="metadata828">
    <rdf:RDF>
      <cc:Work
         rdf:about="">
        <dc:format>image/svg+xml</dc:format>
        <dc:type
           rdf:resource="http://purl.org/dc/dcmitype/StillImage" />
        <dc:title></dc:title>
      </cc:Work>
    </rdf:RDF>
  </metadata>
  <g
     inkscape:label="Icon"
     inkscape:groupmode="layer"
     id="layer1"
     transform="translate(0,-274.42223)">
    <path
       sodipodi:nodetypes="cccccccccccsccccccccccccccccccccccccccccccccccccccccccccccccsccccscscsccccccccccscccccccsccccccccccccsccscccsccscccsccscccccccccc"
       d="m 6.3316838,290.6202 c 0.082743,0.16424 0.2830854,0.23041 0.4472827,0.14757 l 0.1839827,-0.0917 v 0.12872 c 6.657e-4,0.18294 0.1492817,0.33092 0.3322125,0.33156 h 0.981682 l 0.00333,0.3296 c 0.002,0.18199 0.149578,0.32834 0.3315601,0.32897 l 6.3276182,0.0468 c 0.09929,10e-4 0.193343,-0.0419 0.257448,-0.11763 0.811723,-0.96734 1.437613,-1.7464 2.272171,-2.83062 2.298379,-0.0996 4.138667,-1.99761 4.138667,-4.32005 0,-2.38507 -1.688167,-4.35101 -4.567677,-4.35994 -2.879509,-0.009 -6.385356,0.45943 -9.5665874,1.1659 l -1.2423792,-1.66365 c -0.062767,-0.0851 -0.1621868,-0.13525 -0.2678504,-0.13523 h -7.66e-5 l -2.9905548,0.0101 c -0.2732828,0.003 -0.4271047,0.31483 -0.2626479,0.5331 l 1.8287881,2.4386 c -0.2157408,0.19321 -0.4005455,0.41725 -0.5480499,0.67548 l -2.7279072,0.34066 c -0.1676824,0.0205 -0.2934507,0.16329 -0.29255207,0.33221 v 1.32885 c -6.7079e-4,0.16837 0.12511157,0.31082 0.29254687,0.33126 l 2.7097032,0.33871 c 0.1485128,0.26485 0.342551,0.48676 0.5643034,0.68067 l -1.8417896,2.45551 c -0.1651193,0.21918 -0.00918,0.53267 0.2652474,0.5331 h 2.6589915 c 0.1052241,6.7e-4 0.2045634,-0.0484 0.2678503,-0.13262 l 1.2599345,-1.69162 c 0.3654287,0.1131 0.731926,0.21362 1.0987028,0.30686 l 0.011046,1.07725 H 7.295158 c -0.1838895,6.7e-4 -0.3329149,0.15027 -0.3322125,0.33416 v 0.12613 l -0.1839827,-0.0917 c -0.2069699,-0.0834 -0.3327716,-0.0489 -0.4472827,0.15018 -0.080819,0.16424 -0.014214,0.36287 0.149528,0.48011 -0.1651725,0.11738 -0.2320177,0.31786 -0.149528,0.48272 z m -0.5330979,-10.37137 0.4953913,0.66311 H 4.1329767 l -0.4940899,-0.65857 z m -0.8854651,2.87288 c 0.4330397,-0.41905 1.0650107,-0.70163 1.7995331,-0.88742 3.4349311,-0.8198 6.9368081,-1.34035 10.5683551,-1.32235 1.773301,0 3.246539,1.25268 3.586713,2.92359 -1.566493,-0.4802 -3.817725,-0.76485 -6.139735,-0.85165 -2.502211,-0.0936 -5.0536838,0.0483 -6.8724195,0.47588 -0.3054505,-0.33494 -0.7407736,-0.55 -1.2462838,-0.5487 z M 4.632269,281.57832 h 1.9640132 c -0.014479,0.004 -0.029093,0.006 -0.043558,0.0101 -0.00166,-2e-5 -0.00299,-2e-5 -0.00455,0 -0.5236978,0.13246 -1.0305828,0.31859 -1.4731722,0.58055 z m 1.9991201,1.99976 c 0.5535222,0.003 0.9979323,0.44127 0.9979356,0.99534 3.4e-6,0.55408 -0.4444068,0.99513 -0.9979356,0.99729 L 2.967961,285.11303 v -1.07725 z m 8.0764569,1.98028 c -2.365814,0.0525 -4.7863664,-0.12442 -6.4908009,-0.51036 0.045815,-0.15156 0.078016,-0.30873 0.078016,-0.47458 0,-0.17852 -0.036299,-0.34755 -0.089067,-0.50905 1.4755387,-0.31797 3.4877239,-0.46363 5.5390219,-0.43882 h -1.2e-5 c 0.319276,0.004 0.639547,0.0126 0.958277,0.024 2.430387,0.0908 4.795731,0.42119 6.234662,0.9898 -1.45312,0.56749 -3.811049,0.86531 -6.230097,0.91894 z M 2.3022379,284.11899 v 0.91082 l -0.6663723,-0.0833 v -0.74439 z m 12.4205461,2.10315 c 2.298816,-0.051 4.533601,-0.29847 6.109183,-0.76975 -0.392891,1.59957 -1.526487,2.78446 -4.178765,2.81371 -2.652275,0.0293 -6.483761,-0.16535 -9.9158365,-1.34379 -0.00566,-10e-4 -0.011813,-0.004 -0.017541,-0.005 -0.7532226,-0.20926 -1.3835859,-0.48276 -1.8118855,-0.89067 l 1.701362,0.21194 c 0.5215276,10e-4 0.9686073,-0.22947 1.2748799,-0.58445 1.8116992,0.44 4.3473911,0.62343 6.8386031,0.5682 z m -10.0905284,1.349 0.446647,-0.59553 c 0.4217922,0.24283 0.9012826,0.42145 1.3870243,0.57928 z m 4.2810561,0.64946 c 2.5481113,0.56868 5.1237173,0.70387 7.6980723,0.68652 -0.632829,0.81178 -1.185343,1.49857 -1.829437,2.26827 l -5.8380786,-0.0442 z m -4.779686,0.0162 h 1.8242379 l -0.5031935,0.67612 H 3.6265343 Z m 5.6820539,1.30739 c -0.182821,6.6e-4 -0.3308512,0.14874 -0.3315635,0.33156 -6.657e-4,0.18384 0.1477272,0.33345 0.3315635,0.33417 h 0.6663714 c 0.184852,6.6e-4 0.334889,-0.14931 0.334163,-0.33417 -6.65e-4,-0.18383 -0.150327,-0.33228 -0.334163,-0.33156 z m 2.1648984,0 c -0.183833,-6.7e-4 -0.333441,0.14773 -0.33416,0.33156 -6.66e-4,0.18486 0.149308,0.33488 0.33416,0.33417 H 12.6463 c 0.184089,-3.3e-4 0.332932,-0.15008 0.332213,-0.33417 -6.65e-4,-0.18307 -0.149139,-0.3312 -0.332213,-0.33156 z m 2.162302,0 c -0.182821,6.6e-4 -0.330852,0.14874 -0.331564,0.33156 -6.66e-4,0.18384 0.147728,0.33345 0.331564,0.33417 h 0.665722 c 0.184852,6.6e-4 0.334886,-0.14931 0.33416,-0.33417 -6.66e-4,-0.18383 -0.150327,-0.33228 -0.33416,-0.33156 z m -6.5135553,0.26005 h 0.633865 l 0.00716,0.66637 h -0.64102 z"
       style="color:#000000;font-style:normal;font-variant:normal;font-weight:normal;font-stretch:normal;font-size:medium;line-height:normal;font-family:sans-serif;font-variant-ligatures:normal;font-variant-position:normal;font-variant-caps:normal;font-variant-numeric:normal;font-variant-alternates:normal;font-variant-east-asian:normal;font-feature-settings:normal;font-variation-settings:normal;text-indent:0;text-align:start;text-decoration:none;text-decoration-line:none;text-decoration-style:solid;text-decoration-color:#000000;letter-spacing:normal;word-spacing:normal;text-transform:none;writing-mode:lr-tb;direction:ltr;text-orientation:mixed;dominant-baseline:auto;baseline-shift:baseline;text-anchor:start;white-space:normal;shape-padding:0;shape-margin:0;inline-size:0;clip-rule:nonzero;display:inline;overflow:visible;visibility:visible;isolation:auto;mix-blend-mode:normal;color-interpolation:sRGB;color-interpolation-filters:linearRGB;solid-color:#000000;solid-opacity:1;vector-effect:none;fill:#000000;fill-opacity:1;fill-rule:nonzero;stroke:none;stroke-width:0.529168;stroke-linecap:round;stroke-linejoin:round;stroke-miterlimit:4;stroke-dasharray:none;stroke-dashoffset:0;stroke-opacity:1;color-rendering:auto;image-rendering:auto;shape-rendering:auto;text-rendering:auto;enable-background:accumulate;stop-color:#000000"
       id="path442" />
  </g>
</svg>
